<svg width="264" height="335" viewBox="0 0 264 335" fill="none" xmlns="http://www.w3.org/2000/svg">
<path d="M241.179 334.437H22.6459C16.7892 334.43 11.1743 332.101 7.03305 327.96C2.89177 323.818 0.562276 318.203 0.555664 312.347V22.9841C0.562273 17.1275 2.89177 11.5126 7.03305 7.37126C11.1743 3.22996 16.7892 0.90044 22.6459 0.893799H241.179C247.036 0.900416 252.65 3.22991 256.792 7.37122C260.933 11.5125 263.263 17.1274 263.269 22.9841V312.347C263.263 318.203 260.933 323.818 256.792 327.96C252.65 332.101 247.036 334.43 241.179 334.437Z" fill="#E6E6E6"/>
<path d="M225.818 316.026H38.0068C32.8068 316.02 27.8213 313.952 24.1443 310.275C20.4673 306.598 18.399 301.612 18.3931 296.412V38.9187C18.399 33.7186 20.4673 28.7332 24.1443 25.0562C27.8213 21.3792 32.8068 19.3108 38.0068 19.3049H225.818C231.018 19.3108 236.003 21.3791 239.68 25.0562C243.357 28.7332 245.426 33.7186 245.431 38.9187V296.412C245.426 301.612 243.357 306.598 239.68 310.275C236.003 313.952 231.018 316.02 225.818 316.026Z" fill="white"/>
<path d="M207.082 68.2389H56.7426C56.0981 68.2398 55.4598 68.1137 54.8641 67.8677C54.2685 67.6217 53.7272 67.2607 53.2711 66.8053C52.8151 66.3499 52.4533 65.8091 52.2064 65.2138C51.9596 64.6184 51.8325 63.9803 51.8325 63.3358C51.8325 62.6913 51.9596 62.0532 52.2064 61.4579C52.4533 60.8626 52.8151 60.3217 53.2711 59.8663C53.7272 59.411 54.2685 59.05 54.8641 58.804C55.4598 58.558 56.0981 58.4318 56.7426 58.4327H207.082C207.727 58.4318 208.365 58.558 208.961 58.804C209.557 59.05 210.098 59.411 210.554 59.8663C211.01 60.3217 211.372 60.8626 211.619 61.4579C211.865 62.0532 211.993 62.6913 211.993 63.3358C211.993 63.9803 211.865 64.6184 211.619 65.2138C211.372 65.8091 211.01 66.3499 210.554 66.8053C210.098 67.2607 209.557 67.6217 208.961 67.8677C208.365 68.1137 207.727 68.2398 207.082 68.2389Z" fill="#E4E4E4"/>
<path d="M207.082 87.6134H56.7422C55.4417 87.6134 54.1946 87.0968 53.275 86.1773C52.3555 85.2577 51.8389 84.0105 51.8389 82.7101C51.8389 81.4096 52.3555 80.1625 53.275 79.2429C54.1946 78.3234 55.4417 77.8068 56.7422 77.8068H207.082C208.382 77.8068 209.63 78.3234 210.549 79.2429C211.469 80.1625 211.985 81.4096 211.985 82.7101C211.985 84.0105 211.469 85.2577 210.549 86.1773C209.63 87.0968 208.382 87.6134 207.082 87.6134Z" fill="#E4E4E4"/>
<path d="M121.911 106.988H56.7422C55.4417 106.988 54.1946 106.471 53.275 105.552C52.3555 104.632 51.8389 103.385 51.8389 102.085C51.8389 100.784 52.3555 99.537 53.275 98.6174C54.1946 97.6979 55.4417 97.1813 56.7422 97.1813H121.911C123.211 97.1813 124.459 97.6979 125.378 98.6174C126.298 99.537 126.814 100.784 126.814 102.085C126.814 103.385 126.298 104.632 125.378 105.552C124.459 106.471 123.211 106.988 121.911 106.988Z" fill="#E4E4E4"/>
<path d="M207.082 147.565H56.7426C56.0981 147.566 55.4598 147.44 54.8641 147.194C54.2685 146.948 53.7272 146.587 53.2711 146.132C52.8151 145.676 52.4533 145.136 52.2064 144.54C51.9596 143.945 51.8325 143.307 51.8325 142.662C51.8325 142.018 51.9596 141.38 52.2064 140.784C52.4533 140.189 52.8151 139.648 53.2711 139.193C53.7272 138.737 54.2685 138.376 54.8641 138.13C55.4598 137.884 56.0981 137.758 56.7426 137.759H207.082C207.727 137.758 208.365 137.884 208.961 138.13C209.557 138.376 210.098 138.737 210.554 139.193C211.01 139.648 211.372 140.189 211.619 140.784C211.865 141.38 211.993 142.018 211.993 142.662C211.993 143.307 211.865 143.945 211.619 144.54C211.372 145.136 211.01 145.676 210.554 146.132C210.098 146.587 209.557 146.948 208.961 147.194C208.365 147.44 207.727 147.566 207.082 147.565Z" fill="#E4E4E4"/>
<path d="M207.082 166.94H56.7422C55.4417 166.94 54.1946 166.423 53.275 165.504C52.3555 164.584 51.8389 163.337 51.8389 162.036C51.8389 160.736 52.3555 159.489 53.275 158.569C54.1946 157.65 55.4417 157.133 56.7422 157.133H207.082C208.382 157.133 209.63 157.65 210.549 158.569C211.469 159.489 211.985 160.736 211.985 162.036C211.985 163.337 211.469 164.584 210.549 165.504C209.63 166.423 208.382 166.94 207.082 166.94Z" fill="#E4E4E4"/>
<path d="M121.911 186.314H56.7425C55.4433 186.312 54.1979 185.795 53.2798 184.876C52.3618 183.956 51.8462 182.71 51.8462 181.411C51.8462 180.112 52.3618 178.866 53.2798 177.946C54.1979 177.027 55.4433 176.51 56.7425 176.508H121.911C123.212 176.508 124.459 177.024 125.378 177.944C126.298 178.863 126.815 180.111 126.815 181.411C126.815 182.711 126.298 183.959 125.378 184.878C124.459 185.798 123.212 186.314 121.911 186.314Z" fill="#E4E4E4"/>
<path d="M207.082 226.892H56.7426C56.0981 226.893 55.4598 226.767 54.8641 226.521C54.2685 226.275 53.7272 225.914 53.2711 225.458C52.8151 225.003 52.4533 224.462 52.2064 223.867C51.9596 223.271 51.8325 222.633 51.8325 221.989C51.8325 221.344 51.9596 220.706 52.2064 220.111C52.4533 219.515 52.8151 218.975 53.2711 218.519C53.7272 218.064 54.2685 217.703 54.8641 217.457C55.4598 217.211 56.0981 217.085 56.7426 217.086H207.082C207.727 217.085 208.365 217.211 208.961 217.457C209.557 217.703 210.098 218.064 210.554 218.519C211.01 218.975 211.372 219.515 211.619 220.111C211.865 220.706 211.993 221.344 211.993 221.989C211.993 222.633 211.865 223.271 211.619 223.867C211.372 224.462 211.01 225.003 210.554 225.458C210.098 225.914 209.557 226.275 208.961 226.521C208.365 226.767 207.727 226.893 207.082 226.892Z" fill="#E4E4E4"/>
<path d="M207.082 246.266H56.7422C55.4417 246.266 54.1946 245.75 53.275 244.83C52.3555 243.911 51.8389 242.663 51.8389 241.363C51.8389 240.063 52.3555 238.815 53.275 237.896C54.1946 236.976 55.4417 236.46 56.7422 236.46H207.082C208.382 236.46 209.63 236.976 210.549 237.896C211.469 238.815 211.985 240.063 211.985 241.363C211.985 242.663 211.469 243.911 210.549 244.83C209.63 245.75 208.382 246.266 207.082 246.266Z" fill="#E4E4E4"/>
<path d="M121.911 265.641H56.7422C55.4417 265.641 54.1946 265.124 53.275 264.205C52.3555 263.285 51.8389 262.038 51.8389 260.738C51.8389 259.437 52.3555 258.19 53.275 257.27C54.1946 256.351 55.4417 255.834 56.7422 255.834H121.911C123.211 255.834 124.459 256.351 125.378 257.27C126.298 258.19 126.814 259.437 126.814 260.738C126.814 262.038 126.298 263.285 125.378 264.205C124.459 265.124 123.211 265.641 121.911 265.641Z" fill="#E4E4E4"/>
</svg>
