<svg width="294" height="518" viewBox="0 0 294 518" fill="none" xmlns="http://www.w3.org/2000/svg">
<path d="M261.24 337.096C259.798 336.111 258.589 334.822 257.699 333.319C256.809 331.816 256.258 330.136 256.086 328.397C255.914 326.658 256.125 324.902 256.704 323.253C257.283 321.604 258.216 320.103 259.437 318.854L240.537 280.822L262.417 283.491L277.01 319.198C278.968 321.391 280.055 324.227 280.065 327.17C280.074 330.112 279.006 332.956 277.062 335.162C275.118 337.368 272.434 338.784 269.518 339.14C266.601 339.497 263.656 338.769 261.24 337.096H261.24Z" fill="#E6C3B4"/>
<path d="M184.491 206.226L198.876 204.239C198.876 204.239 200.265 225.923 207.146 229.209C214.027 232.495 211.708 233.036 212.519 236.515C213.301 238.963 214.589 241.22 216.301 243.138C218.013 245.056 220.109 246.593 222.453 247.648C227.904 250.045 252.698 310.32 252.698 310.32L273.575 305.453C271.643 300.22 270.371 294.767 269.788 289.219C269.055 280.832 259.547 261.041 256.416 258.103C253.285 255.165 254.523 249.986 252.9 243.029C251.277 236.071 252.404 242.522 249.699 230.927C246.994 219.331 216.586 149.837 215.312 139.131C214.037 128.424 199.115 122.122 199.115 122.122L187.517 124.826L184.491 206.226Z" fill="#3F3D56"/>
<path d="M128.083 242.352L104.846 351.028L231.688 341.503L193.723 235.395L128.083 242.352Z" fill="#E6C3B4"/>
<path d="M101.769 424.982C111.751 479.984 108.67 445.026 108.67 445.026C108.67 445.026 101.183 453.776 106.174 458.78C111.166 463.784 106.174 473.777 106.174 473.777L124.016 619.27L126.805 631.85H146.324L147.718 615.077L156.632 533.741C156.632 533.741 161.623 523.733 159.127 521.231C156.632 518.729 161.623 503.731 161.623 503.731L167.855 384.978L191.181 457.675C191.181 457.675 187.43 462.679 191.181 466.425C194.917 470.171 217.727 546.237 217.727 546.237L245.315 612.282L246.709 613.679L253.68 631.85L271.805 623.464L261.046 530.345L260.6 528.346L260.126 526.235C260.126 526.235 262.621 519.987 258.885 516.227C257.792 515.081 256.993 513.686 256.559 512.161C256.124 510.637 256.066 509.029 256.389 507.477C256.512 507.347 256.623 507.206 256.724 507.058C257.165 506.451 257.47 505.754 257.616 505.017C257.951 503.452 257.658 501.257 255.134 498.727C254.424 497.97 253.827 497.113 253.364 496.184C249.571 488.985 247.661 473.736 247.661 473.736C247.661 473.736 244.287 352.956 233.245 334.505C232.659 333.541 206.89 267.414 206.276 267.036C193.812 259.544 121.228 269.832 121.228 269.832C121.228 269.832 99.1195 333.345 98.8546 334.994C97.4184 344.262 93.3055 378.325 101.769 424.982Z" fill="#2F2E41"/>
<path d="M5.50777 142.732C5.87211 144.445 6.60774 146.054 7.66295 147.448C8.71816 148.842 10.0672 149.986 11.6151 150.8C13.1631 151.613 14.8721 152.077 16.622 152.158C18.3719 152.239 20.12 151.935 21.7432 151.267L49.8273 183.155L55.6839 161.785L28.1169 134.779C26.8279 132.132 24.6105 130.054 21.8845 128.939C19.1586 127.824 16.1137 127.75 13.3268 128.73C10.5399 129.71 8.2046 131.677 6.76349 134.258C5.32238 136.839 4.87558 139.854 5.50771 142.733L5.50777 142.732Z" fill="#E6C3B4"/>
<path d="M119.005 138.939C119.005 138.939 129.278 123.645 149.497 103.443C160.201 99.8775 178.747 101.955 185.177 103.443C214.911 142.658 216.782 140.052 224.522 161.964C226.529 167.645 227.532 173.104 226.64 177.561C223.072 195.386 198.077 239.415 199.266 244.169C200.455 248.922 208.781 254.864 200.455 254.864C192.13 254.864 123.13 247.126 125.509 243.561C127.888 239.996 119.005 138.939 119.005 138.939Z" fill="#3F3D56"/>
<path d="M155.287 87.9044C174.348 87.9044 189.8 72.5846 189.8 53.6866C189.8 34.7886 174.348 19.4688 155.287 19.4688C136.227 19.4688 120.775 34.7886 120.775 53.6866C120.775 72.5846 136.227 87.9044 155.287 87.9044Z" fill="#E6C3B4"/>
<path d="M128.224 101.302C128.224 101.302 90.1675 103.603 100.881 165.316L90.7483 194.172L67.7258 172.353L66.6822 164.421L41.122 141.801L25.2915 164.011L39.5254 181.066L43.0538 191.112L50.9383 194.742L73.5573 221.844L83.4589 229.543C83.4589 229.543 96.0354 239.447 108.589 236.254C111.939 235.412 115.138 234.048 118.066 232.213C123.797 228.613 129.188 222.732 133.209 213.377C141.666 194.039 148.96 174.215 155.051 154.009L128.224 101.302Z" fill="#3F3D56"/>
<path d="M232.097 127.441C239.37 124.856 246.644 122.267 253.917 119.673C252.663 117.563 251.067 115.679 249.193 114.097C242.268 108.299 232.71 107.251 223.918 105.295C215.112 103.338 205.553 99.3282 202.334 90.8887C198.99 82.1138 203.839 72.6403 206.654 63.6977C210.597 51.22 210.514 37.2892 205.233 25.3285C199.952 13.3679 189.223 3.67075 176.487 0.820304C163.752 -2.01617 149.358 2.60883 141.528 13.0605C136.482 11.5427 131.058 11.9299 126.278 14.149C121.498 16.368 117.693 20.2653 115.583 25.105C113.758 29.688 113.702 35.2073 116.419 39.3292C119.136 43.4512 124.946 45.5611 129.322 43.2696L126.786 36.8141C134.63 39.4829 139.73 53.7072 138.671 61.9511C137.626 70.1811 132.833 77.391 127.97 84.1119C123.107 90.8328 117.924 97.6236 115.834 105.658C112.824 117.213 116.893 129.845 124.417 139.109C131.941 148.373 142.545 154.66 153.524 159.285C161.744 162.751 170.285 165.39 179.023 167.166C177.463 164.12 175.916 161.074 174.355 158.028L192.873 169.262C196.454 169.611 200.063 169.821 203.672 169.891C214.178 170.072 224.893 168.968 234.507 164.763C244.135 160.543 252.593 152.9 256.077 142.965C257.194 139.752 257.722 136.363 257.637 132.961C249.124 131.116 240.61 129.277 232.097 127.441Z" fill="#2F2E41"/>
</svg>
