<svg width="291" height="457" viewBox="0 0 291 457" fill="none" xmlns="http://www.w3.org/2000/svg">
<path d="M282.849 382.614C280.426 382.715 278.027 382.143 275.978 380.977C273.928 379.81 272.327 378.106 271.391 376.095C270.456 374.083 270.23 371.862 270.746 369.732C271.262 367.601 272.494 365.665 274.275 364.185C274.574 363.12 274.788 362.354 275.086 361.289C274.979 361.057 274.872 360.825 274.764 360.593C263.873 337.252 226.961 337.413 216.163 360.789C206.578 381.537 194.376 402.32 191.371 424.258C190.048 433.954 190.606 443.784 193.021 453.309C170.51 409.173 158.82 361.202 158.745 312.649C158.74 300.466 159.493 288.291 161.001 276.183C162.247 266.257 163.975 256.401 166.186 246.617C178.252 193.525 204.157 143.763 241.775 101.417C259.982 92.4884 274.706 78.7579 283.963 62.076C287.317 56.0794 289.687 49.6781 291 43.0711C288.946 43.3132 286.859 43.4645 284.805 43.5855C284.165 43.6157 283.492 43.6458 282.852 43.6763L282.611 43.686C280.353 43.7771 278.115 43.2797 276.165 42.2539C274.215 41.2281 272.636 39.7175 271.619 37.9041C270.602 36.0906 270.19 34.0516 270.432 32.0324C270.674 30.0133 271.561 28.1001 272.985 26.5232C273.871 25.5423 274.759 24.5619 275.647 23.582C276.993 22.0688 278.374 20.5859 279.721 19.073C279.876 18.9292 280.022 18.7776 280.158 18.6188C281.707 16.8938 283.256 15.1992 284.805 13.4742C281.978 9.53021 278.175 6.22646 273.694 3.8206C258.172 -4.35024 236.758 1.3088 225.546 13.9283C214.3 26.5475 212.179 44.2514 216.085 60.018C219.418 73.5151 226.691 85.8924 234.873 97.6643C234.031 98.6328 233.155 99.571 232.313 100.54C216.926 118.323 203.515 137.419 192.273 157.555C195.453 135.223 190.757 108.319 182.752 90.9766C173.638 71.2167 156.557 54.5749 141.515 37.4925C123.447 16.9739 86.3963 25.9287 83.2131 51.9392C83.1823 52.191 83.1523 52.4427 83.1229 52.6944C85.3572 53.8274 87.5442 55.0298 89.6841 56.3018C92.3724 57.9161 94.4554 60.2227 95.6602 62.9193C96.8651 65.6159 97.1355 68.5767 96.4362 71.4137C95.7369 74.2508 94.1003 76.8319 91.7411 78.8188C89.3818 80.8056 86.4098 82.1056 83.2145 82.5483L82.8873 82.5938C83.6832 89.8314 85.0901 97.0041 87.0959 104.05C92.9079 123.72 103.178 142.098 117.263 158.034C131.348 173.969 148.944 187.117 168.947 196.653C170.26 197.258 171.54 197.864 172.853 198.439C161.557 227.21 154.472 257.179 151.776 287.592C150.249 305.535 150.339 323.56 152.045 341.489C152.011 341.277 151.977 341.066 151.944 340.854C147.634 320.916 135.801 302.926 118.442 289.922C92.6612 270.887 56.2371 263.877 28.4238 248.577C15.0352 241.212 -2.1213 250.73 0.215373 264.681C0.252699 264.904 0.290605 265.126 0.329114 265.349C4.47526 266.867 8.51218 268.615 12.4164 270.584C14.6507 271.717 16.8378 272.92 18.9777 274.192C21.6659 275.806 23.7489 278.113 24.9537 280.809C26.1585 283.506 26.429 286.467 25.7297 289.304C25.0304 292.141 23.3939 294.722 21.0346 296.709C18.6753 298.696 15.7033 299.996 12.508 300.438L12.1806 300.484C11.9449 300.514 11.7428 300.544 11.5075 300.575C18.5917 315.778 28.5347 329.772 40.901 341.943C56.1775 356.677 74.6411 368.45 95.1599 376.542C115.679 384.634 137.82 388.874 160.227 389.002H160.26C166.343 412.758 175.155 435.881 186.557 458H280.495C280.832 457.062 281.135 456.093 281.438 455.155C272.743 455.647 264.013 455.179 255.445 453.763C262.414 446.077 269.384 438.329 276.354 430.643C276.509 430.499 276.655 430.347 276.791 430.189C280.327 426.255 283.896 422.351 287.431 418.417L287.433 418.412C287.621 406.353 286.082 394.322 282.852 382.616L282.849 382.614Z" fill="#F2F2F2"/>
</svg>
