<svg width="222" height="719" viewBox="0 0 222 719" fill="none" xmlns="http://www.w3.org/2000/svg">
<path d="M199.14 407.444C197.389 406.264 195.922 404.719 194.84 402.917C193.759 401.116 193.091 399.102 192.882 397.018C192.673 394.933 192.929 392.829 193.632 390.853C194.335 388.877 195.468 387.078 196.95 385.581L174 340L200.57 343.198L218.29 385.993C220.668 388.621 221.988 392.021 222 395.547C222.012 399.074 220.714 402.482 218.354 405.126C215.993 407.77 212.734 409.467 209.192 409.894C205.651 410.321 202.074 409.449 199.14 407.444H199.14Z" fill="#E6C3B4"/>
<path d="M106 249.443L123.44 247.047C123.44 247.047 125.124 273.202 133.466 277.165C141.808 281.129 138.996 281.781 139.98 285.977C140.928 288.931 142.49 291.653 144.565 293.967C146.64 296.28 149.181 298.133 152.024 299.406C158.632 302.297 188.69 375 188.69 375L214 369.129C211.658 362.817 210.116 356.239 209.409 349.548C208.52 339.431 196.993 315.56 193.197 312.017C189.401 308.473 190.902 302.226 188.935 293.834C186.967 285.442 188.333 293.224 185.054 279.237C181.775 265.251 144.91 181.429 143.365 168.515C141.82 155.601 123.73 148 123.73 148L109.669 151.262L106 249.443Z" fill="#3F3D56"/>
<path d="M38.03 293.362L10 424L163 412.55L117.206 285L38.03 293.362Z" fill="#E6C3B4"/>
<path d="M6.27026 514.101C18.3485 580.544 14.6204 538.314 14.6204 538.314C14.6204 538.314 5.56161 548.884 11.6007 554.929C17.6399 560.974 11.6007 573.047 11.6007 573.047L33.1881 748.804L36.5619 764H60.1785L61.8654 743.738L72.6498 645.483C72.6498 645.483 78.689 633.394 75.6695 630.371C72.6499 627.349 78.689 609.231 78.689 609.231L86.2294 465.776L114.451 553.595C114.451 553.595 109.914 559.64 114.451 564.165C118.972 568.69 146.57 660.579 146.57 660.579L179.949 740.361L181.636 742.05L190.07 764L212 753.869L198.982 641.38L198.442 638.966L197.869 636.416C197.869 636.416 200.888 628.869 196.368 624.327C195.045 622.942 194.079 621.257 193.553 619.415C193.027 617.573 192.957 615.631 193.348 613.757C193.496 613.599 193.631 613.429 193.753 613.25C194.287 612.516 194.655 611.675 194.833 610.785C195.237 608.894 194.883 606.243 191.83 603.187C190.97 602.272 190.248 601.237 189.688 600.114C185.099 591.418 182.788 572.996 182.788 572.996C182.788 572.996 178.706 427.093 165.345 404.805C164.637 403.639 133.458 323.757 132.716 323.301C117.635 314.251 29.8144 326.678 29.8144 326.678C29.8144 326.678 3.0651 403.403 2.74459 405.396C1.00694 416.59 -3.96925 457.739 6.27026 514.101Z" fill="#2F2E41"/>
<path d="M27 168.186C27 168.186 39.3702 149.74 63.716 125.375C76.605 121.075 98.9371 123.581 106.679 125.375C142.482 172.672 144.735 169.529 154.055 195.955C156.471 202.808 157.68 209.392 156.606 214.767C152.309 236.265 122.211 289.368 123.643 295.101C125.075 300.834 135.1 308 125.076 308C115.051 308 31.9675 298.667 34.8317 294.367C37.696 290.068 27 168.186 27 168.186Z" fill="#3F3D56"/>
<path d="M70.5 106C93.4198 106 112 87.6437 112 65C112 42.3563 93.4198 24 70.5 24C47.5802 24 29 42.3563 29 65C29 87.6437 47.5802 106 70.5 106Z" fill="#E6C3B4"/>
<path d="M163.169 153.761C171.946 150.643 180.723 147.518 189.5 144.388C187.987 141.843 186.061 139.569 183.8 137.662C175.443 130.665 163.908 129.401 153.299 127.041C142.672 124.68 131.137 119.842 127.253 109.66C123.218 99.0724 129.069 87.6424 132.465 76.8529C137.224 61.7983 137.123 44.9904 130.75 30.5595C124.378 16.1287 111.431 4.42885 96.0623 0.989718C80.694 -2.43256 63.3245 3.14762 53.8748 15.7578C47.7866 13.9266 41.2402 14.3937 35.472 17.0711C29.7038 19.7484 25.113 24.4507 22.5664 30.2898C20.3637 35.8194 20.2965 42.4785 23.5753 47.4517C26.8541 52.425 33.8656 54.9706 39.1454 52.2058L36.0852 44.4172C45.5518 47.6372 51.7058 64.7991 50.4279 74.7456C49.1668 84.6753 43.3827 93.3742 37.5143 101.483C31.6461 109.592 25.3911 117.785 22.8689 127.479C19.237 141.421 24.1469 156.661 33.2267 167.838C42.3065 179.015 55.1022 186.602 68.3519 192.182C78.2702 196.363 88.5775 199.548 99.1224 201.69C97.2392 198.015 95.3728 194.34 93.4895 190.665L115.836 204.219C120.157 204.64 124.512 204.893 128.867 204.977C141.545 205.197 154.475 203.865 166.078 198.79C177.696 193.699 187.903 184.477 192.106 172.491C193.454 168.614 194.092 164.525 193.989 160.421C183.716 158.195 173.442 155.975 163.169 153.761Z" fill="#2F2E41"/>
</svg>
