<svg width="226" height="183" viewBox="0 0 226 183" fill="none" xmlns="http://www.w3.org/2000/svg">
<path d="M7.33822 94.7444C8.24503 96.461 9.55361 97.9718 11.1719 99.1702C12.7902 100.369 14.6788 101.225 16.7046 101.681C18.7305 102.136 20.8443 102.178 22.8972 101.804C24.9502 101.431 26.8922 100.65 28.5867 99.5182L70.1844 125.901L70.9359 101.745L31.3187 80.3943C29.0748 77.9303 25.9146 76.3126 22.437 75.8477C18.9593 75.3828 15.4058 76.1031 12.4498 77.872C9.49389 79.6408 7.34085 82.3354 6.39873 85.4452C5.45661 88.5549 5.79089 91.8636 7.33817 94.7445L7.33822 94.7444Z" fill="#E6C3B4"/>
<path d="M137.988 18.694C137.988 18.694 94.4884 31.1151 124.368 93.6239L120.772 126.826L87.8935 109.772L84.4398 101.65L48.3907 84.4146L36.3056 112.076L57.6413 126.394L64.5754 136.101L74.7486 137.874L108.653 160.626L122.317 166.177C122.317 166.177 139.708 173.36 153.369 166.686C157.017 164.915 160.342 162.633 163.221 159.922C168.851 154.608 173.442 146.969 175.462 136.012C179.806 113.325 182.661 90.4278 184.014 67.4436L137.988 18.694Z" fill="#3F3D56"/>
</svg>
