<svg width="36" height="36" viewBox="0 0 36 36" fill="none" xmlns="http://www.w3.org/2000/svg">
<path d="M23.8862 26.2567L26.8393 12.3348C26.9598 11.7455 26.8895 11.3237 26.6283 11.0692C26.3672 10.8147 26.0223 10.7679 25.5938 10.9286L8.23661 17.6183C7.84821 17.7656 7.58371 17.933 7.44308 18.1205C7.30246 18.308 7.28571 18.4855 7.39286 18.6529C7.5 18.8203 7.71429 18.9509 8.03571 19.0446L12.4754 20.4308L22.7812 13.942C23.0625 13.7545 23.2768 13.7143 23.4241 13.8214C23.5179 13.8884 23.4911 13.9888 23.3438 14.1228L15.0067 21.6562L14.6853 26.2366C14.9933 26.2366 15.2946 26.0893 15.5893 25.7946L17.7589 23.7054L22.2589 27.0201C23.1161 27.5022 23.6585 27.2478 23.8862 26.2567ZM36 18C36 20.4375 35.5246 22.7679 34.5737 24.9911C33.6228 27.2143 32.3438 29.1295 30.7366 30.7366C29.1295 32.3438 27.2143 33.6228 24.9911 34.5737C22.7679 35.5246 20.4375 36 18 36C15.5625 36 13.2321 35.5246 11.0089 34.5737C8.78571 33.6228 6.87054 32.3438 5.26339 30.7366C3.65625 29.1295 2.37723 27.2143 1.42634 24.9911C0.475446 22.7679 0 20.4375 0 18C0 15.5625 0.475446 13.2321 1.42634 11.0089C2.37723 8.78571 3.65625 6.87054 5.26339 5.26339C6.87054 3.65625 8.78571 2.37723 11.0089 1.42634C13.2321 0.475446 15.5625 0 18 0C20.4375 0 22.7679 0.475446 24.9911 1.42634C27.2143 2.37723 29.1295 3.65625 30.7366 5.26339C32.3438 6.87054 33.6228 8.78571 34.5737 11.0089C35.5246 13.2321 36 15.5625 36 18Z" fill="black"/>
</svg>
