<svg width="36" height="36" viewBox="0 0 36 36" fill="none" xmlns="http://www.w3.org/2000/svg">
<path d="M18.0007 0.719727C8.4571 0.719727 0.720703 8.45613 0.720703 17.9997C0.720703 27.5433 8.4571 35.2797 18.0007 35.2797C27.5443 35.2797 35.2807 27.5433 35.2807 17.9997C35.2807 8.45613 27.5443 0.719727 18.0007 0.719727ZM24.6463 20.2155C24.6463 20.2155 26.1745 21.7239 26.5507 22.4241C26.5615 22.4385 26.5669 22.4529 26.5705 22.4601C26.7235 22.7175 26.7595 22.9173 26.6839 23.0667C26.5579 23.3151 26.1259 23.4375 25.9783 23.4483H23.2783C23.0911 23.4483 22.6987 23.3997 22.2235 23.0721C21.8581 22.8165 21.4981 22.3971 21.1471 21.9885C20.6233 21.3801 20.1697 20.8545 19.7125 20.8545C19.6544 20.8544 19.5967 20.8635 19.5415 20.8815C19.1959 20.9931 18.7531 21.4863 18.7531 22.8003C18.7531 23.2107 18.4291 23.4465 18.2005 23.4465H16.9639C16.5427 23.4465 14.3485 23.2989 12.4045 21.2487C10.0249 18.7377 7.8829 13.7013 7.8649 13.6545C7.7299 13.3287 8.0089 13.1541 8.3131 13.1541H11.0401C11.4037 13.1541 11.5225 13.3755 11.6053 13.5717C11.7025 13.8003 12.0589 14.7093 12.6439 15.7317C13.5925 17.3985 14.1739 18.0753 14.6401 18.0753C14.7275 18.0743 14.8134 18.0521 14.8903 18.0105C15.4987 17.6721 15.3853 15.5031 15.3583 15.0531C15.3583 14.9685 15.3565 14.0829 15.0451 13.6581C14.8219 13.3503 14.4421 13.2333 14.2117 13.1901C14.305 13.0614 14.4278 12.9571 14.5699 12.8859C14.9875 12.6771 15.7399 12.6465 16.4869 12.6465H16.9027C17.7127 12.6573 17.9215 12.7095 18.2149 12.7833C18.8089 12.9255 18.8215 13.3089 18.7693 14.6211C18.7531 14.9937 18.7369 15.4149 18.7369 15.9117C18.7369 16.0197 18.7315 16.1349 18.7315 16.2573C18.7135 16.9251 18.6919 17.6829 19.1635 17.9943C19.225 18.0329 19.2961 18.0535 19.3687 18.0537C19.5325 18.0537 20.0257 18.0537 21.3613 15.7623C21.7732 15.0248 22.1311 14.2584 22.4323 13.4691C22.4593 13.4223 22.5385 13.2783 22.6321 13.2225C22.7012 13.1873 22.7778 13.1694 22.8553 13.1703H26.0611C26.4103 13.1703 26.6497 13.2225 26.6947 13.3575C26.7739 13.5717 26.6803 14.2251 25.2169 16.2069L24.5635 17.0691C23.2369 18.8079 23.2369 18.8961 24.6463 20.2155Z" fill="black"/>
</svg>
